<svg xmlns="http://www.w3.org/2000/svg" width="1200" height="1200" viewBox="0 0 1200 1200">
  <rect width="1200" height="1200" fill="#EFF1E7"/>
  <!-- content band: y 285..915 (1200x630, cropped after rasterizing) -->
  <g transform="translate(0 285)">
    <rect x="6" y="6" width="1188" height="618" fill="none" stroke="#DDE2CE" stroke-width="8"/>
    <!-- mini ruler on the left -->
    <g transform="translate(95 90)">
      <rect x="0" y="0" width="270" height="450" rx="30" fill="#FBFAF6" stroke="#B7C2AC" stroke-width="6"/>
      <rect x="66" y="40" width="8" height="370" rx="4" fill="#B7C2AC"/>
      <rect x="44" y="52" width="52" height="11" rx="5" fill="#A9841F"/>
      <rect x="52" y="106" width="36" height="9" rx="4" fill="#5E7A4E"/>
      <rect x="52" y="156" width="36" height="9" rx="4" fill="#4C7186"/>
      <rect x="44" y="196" width="185" height="58" rx="18" fill="#C05A3F"/>
      <circle cx="74" cy="225" r="11" fill="#FBFAF6"/>
      <rect x="98" y="216" width="110" height="18" rx="9" fill="#F6E2D9"/>
      <rect x="52" y="290" width="36" height="9" rx="4" fill="#8C5F82"/>
      <rect x="52" y="340" width="36" height="9" rx="4" fill="#B5721E"/>
      <rect x="44" y="386" width="52" height="11" rx="5" fill="#A9841F"/>
      <path d="M180 118 q50 -58 94 -45 q-9 52 -70 61 q-16 2 -24 -16 z" fill="#5E7A4E"/>
    </g>
    <!-- title -->
    <g font-family="Georgia, 'Times New Roman', serif" fill="#212C24">
      <text x="440" y="240" font-size="76" font-weight="700">Weeks &amp; Leaps</text>
      <text x="442" y="310" font-size="30" font-style="italic" fill="#63715F">Your baby's growth ruler, week by week.</text>
      <text x="442" y="356" font-size="30" font-style="italic" fill="#63715F">Leaps · spurts · teething · milestones</text>
    </g>
    <g font-family="Courier, monospace" fill="#63715F">
      <text x="442" y="460" font-size="24" letter-spacing="2">FREE · NO ACCOUNTS · WORKS OFFLINE</text>
      <text x="442" y="500" font-size="24" letter-spacing="2">ESPAÑOL / ENGLISH</text>
    </g>
  </g>
</svg>
